<svg width="65" height="65" viewBox="0 0 65 65" fill="none" xmlns="http://www.w3.org/2000/svg">
<g clip-path="url(#clip0_242_326)">
<path d="M64.4206 14.1922C64.0422 13.5767 63.3498 13.2278 62.6291 13.2903L59.4378 13.5683L62.4882 7.41919C62.8515 6.68682 62.708 5.80444 62.1315 5.22481C61.5547 4.64519 60.6732 4.49744 59.9391 4.85694L51.8657 8.81082C46.8778 6.17757 40.6462 6.95919 36.3582 10.8653C32.7794 14.1253 30.8983 19.1387 31.249 24.1382C21.8954 23.2007 13.9779 17.8468 9.29611 9.19607C8.98549 8.6222 8.40311 8.24682 7.75223 8.20069C7.10011 8.15532 6.47186 8.44432 6.08361 8.96895C3.17985 12.8917 2.9761 18.2702 5.25248 22.6951C4.62498 22.5366 3.95723 22.3221 3.21673 22.0747C2.58235 21.8626 1.88297 21.9985 1.37385 22.4325C0.86472 22.8665 0.61997 23.5353 0.728845 24.1955C1.6296 29.6565 4.8141 33.8535 9.84461 36.3378C9.18961 36.5659 8.52124 36.7511 7.84161 36.8928C7.16636 37.0335 6.61961 37.5275 6.41148 38.1851C6.20336 38.8426 6.36611 39.5614 6.83736 40.065C10.46 43.9373 15.693 45.8431 19.41 46.7574C15.1838 50.067 10.6216 50.6209 3.99235 50.3933C3.22498 50.37 2.51797 50.8023 2.19535 51.4979C1.87285 52.1937 1.99797 53.0149 2.51335 53.583C5.27685 56.6292 15.3451 60.0639 25.9291 60.3214C26.3478 60.3316 26.7748 60.3371 27.2108 60.3371C34.6422 60.3369 44.4636 58.7439 51.5132 51.6943C56.8491 46.3585 60.1866 40.2159 61.4327 33.4376C62.4392 27.963 61.8031 23.579 61.4975 21.472C61.475 21.3171 61.451 21.1527 61.4315 21.009L64.4166 16.1977C64.7973 15.584 64.799 14.8077 64.4206 14.1922Z" fill="#252525"/>
</g>
<defs>
<clipPath id="clip0_242_326">
<rect width="64" height="64" fill="white" transform="translate(0.703125 0.499939)"/>
</clipPath>
</defs>
</svg>
