<svg width="65" height="65" viewBox="0 0 65 65" fill="none" xmlns="http://www.w3.org/2000/svg">
<g clip-path="url(#clip0_242_308)">
<path d="M1.83355 31.3576L16.5804 36.8615L22.2884 55.2182C22.6536 56.3939 24.0913 56.8285 25.0455 56.0483L33.2657 49.3471C34.1273 48.645 35.3546 48.61 36.2551 49.2637L51.0813 60.0278C52.1021 60.7698 53.5483 60.2105 53.8043 58.977L64.6653 6.73355C64.9448 5.38614 63.6209 4.26209 62.3379 4.7583L1.81627 28.1057C0.322727 28.6817 0.33574 30.7963 1.83355 31.3576ZM21.3685 33.9316L50.1894 16.1808C50.7074 15.8627 51.2403 16.5631 50.7955 16.9757L27.0099 39.0855C26.1738 39.8638 25.6345 40.9053 25.4818 42.0357L24.6715 48.0402C24.5642 48.8419 23.438 48.9215 23.2168 48.1456L20.1006 37.1963C19.7437 35.9474 20.2638 34.6134 21.3685 33.9316Z" fill="#252525"/>
</g>
<defs>
<clipPath id="clip0_242_308">
<rect width="64" height="64" fill="white" transform="translate(0.703125 0.499939)"/>
</clipPath>
</defs>
</svg>
